<?xml version="1.0" encoding="UTF-8"?>
<svg version="1.1" xmlns="http://www.w3.org/2000/svg" width="1056" height="1056">
<path d="M0 0 C348.48 0 696.96 0 1056 0 C1056 348.48 1056 696.96 1056 1056 C707.52 1056 359.04 1056 0 1056 C0 707.52 0 359.04 0 0 Z " fill="#000000" transform="translate(0,0)"/>
<path d="M0 0 C1.6250647 -0.00151062 1.6250647 -0.00151062 3.28295898 -0.00305176 C20.14177609 0.00752154 36.55876272 0.71660337 53.25 3.25 C54.34119141 3.4051709 55.43238281 3.5603418 56.55664062 3.72021484 C68.02659774 5.35283642 79.32895136 7.26029855 90.5234375 10.26171875 C93.0923307 10.94298707 95.63432754 11.57469191 98.2265625 12.14453125 C110.15671679 14.76760384 121.66081467 18.41090262 133.25 22.25 C134.69104892 22.72584505 136.13213171 23.20158751 137.57324219 23.67724609 C142.36292625 25.25919306 147.15065092 26.84699695 151.9375 28.4375 C152.71412994 28.69539307 153.49075989 28.95328613 154.29092407 29.21899414 C162.22746078 31.85768507 170.1461742 34.50458027 177.96411133 37.48168945 C180.37440423 38.29181353 182.75523006 38.77162729 185.25 39.25 C185.28314301 40.14058609 185.31628601 41.03117218 185.35043335 41.94874573 C185.77116486 53.23682054 186.19675498 64.52470784 186.625 75.8125 C186.659067 76.71187412 186.693134 77.61124825 186.72823334 78.53787613 C187.86484798 108.74614025 187.86484798 108.74614025 189.375 138.9375 C190.5099622 159.02655818 190.8870233 179.13430336 191.25 199.25 C163.04611392 201.75851292 163.04611392 201.75851292 155.83300781 197.98583984 C152.19390934 194.55917605 150.35817833 190.19212877 148.41259766 185.65869141 C146.28341732 181.24741607 143.21820789 177.49887576 140.25 173.625 C139.05746442 172.01906717 137.86604047 170.41230821 136.67578125 168.8046875 C131.97706052 162.53184938 127.1596726 156.35877323 122.25 150.25 C121.50492188 149.321875 120.75984375 148.39375 119.9921875 147.4375 C117.76473144 144.69110256 115.51451812 141.96591708 113.25 139.25 C112.82170898 138.7353418 112.39341797 138.22068359 111.95214844 137.69042969 C98.23203532 121.26356087 83.58474366 105.11587204 67.25 91.25 C66.34121094 90.45207031 65.43242188 89.65414062 64.49609375 88.83203125 C26.70017821 55.86603203 -17.00522072 35.61829915 -67.75 38.25 C-81.67934253 39.7718467 -94.33540165 47.17324531 -104.75 56.25 C-105.34039062 56.74628906 -105.93078125 57.24257813 -106.5390625 57.75390625 C-118.04570449 68.23598423 -126.35082897 84.42773677 -127.0859375 100.01171875 C-127.42698845 118.76763657 -123.05751656 135.37034499 -109.75 149.25 C-78.91598286 177.54229411 -32.7534543 194.43783538 5.31506348 211.17803955 C21.45826388 218.27841004 37.4030115 225.76956725 53.31494141 233.37207031 C56.68874941 234.98374074 60.06796529 236.58368645 63.44921875 238.1796875 C76.50972147 244.36647619 89.45405274 250.78887194 102.38946533 257.2321167 C104.37985575 258.22330634 106.37083769 259.21330928 108.36248779 260.20196533 C163.13766562 287.41304053 163.13766562 287.41304053 181.25 302.25 C181.81025879 302.70487793 182.37051758 303.15975586 182.94775391 303.62841797 C210.7630537 326.3312247 229.8287945 357.35875825 238.25 392.25 C238.43763916 393.00514893 238.62527832 393.76029785 238.81860352 394.53833008 C240.79465619 403.67284681 240.60164199 412.88940911 240.5625 422.1875 C240.56100952 423.05583466 240.55951904 423.92416931 240.5579834 424.81881714 C240.51877364 437.49366548 240.16190109 449.85778546 237.25 462.25 C236.98316406 463.43464844 236.71632813 464.61929687 236.44140625 465.83984375 C223.53690994 515.90928943 188.27359724 554.93060625 144.8515625 581.0390625 C118.68337381 596.32761734 89.25576154 606.84409071 59.25 611.25 C57.93805664 611.45302734 57.93805664 611.45302734 56.59960938 611.66015625 C26.65635429 616.14255856 -4.71353197 615.66882418 -34.75 612.25 C-35.7910791 612.1370459 -36.8321582 612.0240918 -37.90478516 611.90771484 C-66.84239316 608.64978068 -95.99193581 602.03215721 -123.75 593.25 C-124.89130371 592.89325195 -126.03260742 592.53650391 -127.20849609 592.16894531 C-153.51391238 583.92169579 -179.10953385 574.50618646 -204.75 564.25 C-204.75 506.17 -204.75 448.09 -204.75 388.25 C-192.87 388.25 -180.99 388.25 -168.75 388.25 C-164.42932274 395.27110054 -160.1222693 402.28354595 -155.8828125 409.35083008 C-144.40195696 428.41749612 -132.29100218 446.90406787 -118.33886719 464.25976562 C-116.81128036 466.17323947 -115.3110226 468.10458832 -113.8203125 470.046875 C-108.5791284 476.86160572 -103.10185176 483.32092415 -97.22265625 489.59375 C-95.23316736 491.73095766 -93.32155725 493.89624054 -91.4375 496.125 C-83.64418837 505.10425036 -74.97077853 513.74237158 -65.75 521.25 C-64.78449219 522.04277344 -63.81898438 522.83554687 -62.82421875 523.65234375 C-38.81221908 543.08165648 -12.16101772 559.82782639 18.375 566.375 C19.13425781 566.54386719 19.89351562 566.71273437 20.67578125 566.88671875 C47.58363169 572.76846919 74.68537243 568.88679187 98.25 554.25 C101.74300225 551.75069667 105.00209116 549.05723779 108.25 546.25 C109.00925781 545.64671875 109.76851562 545.0434375 110.55078125 544.421875 C121.75161138 535.21359324 129.24386914 522.44660194 132.25 508.25 C133.38987554 488.8931891 133.24679346 468.27422344 119.94921875 452.7890625 C113.76772507 446.97434341 106.43373437 442.70672849 99.25 438.25 C97.20181374 436.96225417 95.15363709 435.67449307 93.10546875 434.38671875 C79.04443938 425.59963676 64.78021756 417.23473827 50.25 409.25 C49.17024902 408.6533252 48.09049805 408.05665039 46.97802734 407.44189453 C19.56812228 392.33911942 -8.70226254 379.82059082 -37.75 368.25 C-72.56353234 354.33962531 -106.58314974 338.77005009 -136.75 316.25 C-137.29994629 315.84426758 -137.84989258 315.43853516 -138.41650391 315.02050781 C-146.66097182 308.92477399 -154.36306681 302.36577015 -161.75 295.25 C-162.32959473 294.69231934 -162.90918945 294.13463867 -163.50634766 293.56005859 C-170.78426387 286.51572086 -177.73269249 279.42806794 -183.75 271.25 C-184.3171875 270.49976563 -184.884375 269.74953125 -185.46875 268.9765625 C-193.22309081 258.36721439 -199.84271053 246.43697716 -204.75 234.25 C-205.48863281 232.42855469 -205.48863281 232.42855469 -206.2421875 230.5703125 C-210.69077466 219.08020779 -212.86254494 207.39168854 -214.75 195.25 C-214.94464844 194.15171875 -215.13929688 193.0534375 -215.33984375 191.921875 C-219.75723081 152.37574324 -209.69862788 109.63279853 -184.875 78.0625 C-183.50950796 76.45023229 -182.13355648 74.84679278 -180.75 73.25 C-179.8340505 72.14218248 -178.92012987 71.03268558 -178.0078125 69.921875 C-153.21647762 39.99650605 -118.33213769 18.87944814 -80.75 9.25 C-79.22374184 8.83543164 -77.69771379 8.42001547 -76.171875 8.00390625 C-67.51149832 5.68884978 -58.87515923 3.78543569 -50 2.5 C-49.21036865 2.38454834 -48.4207373 2.26909668 -47.60717773 2.15014648 C-31.81934813 0.03537577 -15.89886696 0.0103074 0 0 Z " fill="#FDFDFD" transform="translate(534.75,213.75)"/>
<path d="M0 0 C0.495 0.99 0.495 0.99 1 2 C0.21831154 4.13215412 -0.65477582 6.23087687 -1.5625 8.3125 C-15.401361 41.38655893 -17.32502266 77.16456937 -5 111 C-4.76909668 111.64839844 -4.53819336 112.29679687 -4.30029297 112.96484375 C-1.17290415 121.64845258 2.59956722 129.46526445 8 137 C9.07701172 138.52173828 9.07701172 138.52173828 10.17578125 140.07421875 C20.1437948 153.77607015 32.41030177 164.98112265 46 175 C46.56686523 175.4223291 47.13373047 175.8446582 47.71777344 176.27978516 C87.10906631 205.52551686 133.24933388 226.3805923 178 246 C178.71551025 246.31414856 179.43102051 246.62829712 180.16821289 246.95196533 C195.04954944 253.48167328 209.96352567 259.93232836 224.98046875 266.14453125 C249.24674914 276.19260457 272.56269319 286.59538984 294 302 C294.91394531 302.6496875 295.82789063 303.299375 296.76953125 303.96875 C318.29224342 320.24463184 336.40615843 343.46532915 340.5625 370.68359375 C342.99904607 391.82604406 340.82092188 413.33656122 327.265625 430.59765625 C321.01171725 438.19198078 314.07515352 445.1755409 307 452 C305.60977144 447.82931431 307.08052273 444.77802768 308.375 440.75 C315.0105035 419.85910163 314.49314963 395.7848882 305.3125 375.8125 C292.54540633 351.97419227 271.74083458 339.7283356 249 327 C248.16017578 326.52788086 247.32035156 326.05576172 246.45507812 325.56933594 C219.08892739 310.25952926 190.86063 296.44807924 162.25460815 283.62335205 C161.5917984 283.32612244 160.92898865 283.02889282 160.24609375 282.72265625 C159.25127487 282.27657013 159.25127487 282.27657013 158.23635864 281.82147217 C128.53299577 268.46139956 99.16090336 254.38660402 71 238 C70.12569336 237.4932373 69.25138672 236.98647461 68.35058594 236.46435547 C27.73010251 212.82936028 -10.00390581 185.87705249 -28 141 C-28.30679687 140.29746094 -28.61359375 139.59492188 -28.9296875 138.87109375 C-33.75709621 127.35001008 -35.13189056 113.86759415 -35.203125 101.46875 C-35.20882507 100.67456665 -35.21452515 99.8803833 -35.22039795 99.06213379 C-35.2297878 97.38811549 -35.23635779 95.71407921 -35.24023438 94.04003906 C-35.24986867 91.53415811 -35.28091986 89.02912426 -35.3125 86.5234375 C-35.53353018 53.19027509 -20.94939091 25.31173381 0 0 Z " fill="#010101" transform="translate(377,293)"/>
<path d="M0 0 C13.07891735 -0.34998094 25.98161741 0.0581976 39 1.3125 C40.26142822 1.43020752 41.52285645 1.54791504 42.82250977 1.66918945 C60.89699116 3.51333166 77.82649836 8.0935781 94.9375 14 C95.62288849 14.23555603 96.30827698 14.47111206 97.01443481 14.71380615 C107.41040739 18.29491336 117.70686171 22.09619102 127.9375 26.125 C129.13947021 26.59808594 130.34144043 27.07117188 131.57983398 27.55859375 C139.8578965 30.8578965 139.8578965 30.8578965 141 32 C141.17496198 33.33622162 141.2874743 34.68072687 141.37304688 36.02563477 C141.45818542 37.3081588 141.45818542 37.3081588 141.54504395 38.61659241 C141.60236694 39.54878098 141.65968994 40.48096954 141.71875 41.44140625 C141.78155151 42.39764389 141.84435303 43.35388153 141.90905762 44.33909607 C142.11040773 47.41329863 142.30559941 50.48785075 142.5 53.5625 C142.69516263 56.61209682 142.89168959 59.66158985 143.09094238 62.71092224 C143.21484439 64.61070996 143.33630845 66.51065876 143.45495605 68.41078186 C143.71195721 72.38214742 144.00998358 76.32431785 144.52514648 80.27124023 C144.94189395 83.54372559 145.19109273 86.73729468 145.31640625 90.03125 C145.37924805 91.61679687 145.37924805 91.61679687 145.44335938 93.234375 C145.48267578 94.31203125 145.52199219 95.3896875 145.5625 96.5 C145.60568359 97.60859375 145.64886719 98.7171875 145.69335938 99.859375 C145.79862214 102.57281506 145.90075846 105.28633417 146 108 C142.77231794 104.81195614 139.65038787 101.56785215 136.625 98.1875 C135.83996094 97.3109375 135.05492187 96.434375 134.24609375 95.53125 C132.37961689 93.42781173 130.52904625 91.31270741 128.6875 89.1875 C116.68122606 75.45034447 104.14023952 61.57621045 90 50 C89.51192871 49.5875 89.02385742 49.175 88.52099609 48.75 C64.55945921 28.51862321 36.980716 14.96460651 7.77294922 4.04638672 C5.1679463 3.0633754 2.58137089 2.04328195 0 1 C0 0.67 0 0.34 0 0 Z " fill="#020202" transform="translate(531,245)"/>
<path d="M0 0 C3.84095734 3.84095734 6.69589386 7.26825383 9.5625 11.75 C28.99838492 41.47329586 50.77548018 71.05149142 79 93 C80.43383812 94.12729342 81.86741072 95.25492459 83.30078125 96.3828125 C91.41941494 102.75085249 99.58248409 109.02986757 108 115 C105.17545733 116.41227133 103.70895017 115.59896574 100.671875 114.8125 C99.57278809 114.52938965 98.47370117 114.2462793 97.34130859 113.95458984 C96.15617676 113.6395752 94.97104492 113.32456055 93.75 113 C91.92782959 112.52167725 91.92782959 112.52167725 90.06884766 112.03369141 C80.60512161 109.51209429 71.28184691 106.65712853 61.9765625 103.609375 C57.59449027 102.17597127 53.18527424 100.88163399 48.75 99.625 C41.360191 97.49926379 34.08482506 95.05814962 26.8125 92.5625 C25.75579102 92.2030127 24.69908203 91.84352539 23.61035156 91.47314453 C15.52019714 88.66576825 7.92297885 85.39556236 0 82 C0 54.94 0 27.88 0 0 Z " fill="#020202" transform="translate(355,663)"/>
</svg>
